<?xml version="1.0" encoding="UTF-8" standalone="no"?>
<svg
   xmlns:dc="http://purl.org/dc/elements/1.1/"
   xmlns:cc="http://creativecommons.org/ns#"
   xmlns:rdf="http://www.w3.org/1999/02/22-rdf-syntax-ns#"
   xmlns:svg="http://www.w3.org/2000/svg"
   xmlns="http://www.w3.org/2000/svg"
   id="svg50"
   version="1.1"
   style="overflow:visible"
   viewBox="-240 -126 480 252"
   height="1008px"
   width="1920px">
  <metadata
     id="metadata56">
    <rdf:RDF>
      <cc:Work
         rdf:about="">
        <dc:format>image/svg+xml</dc:format>
        <dc:type
           rdf:resource="http://purl.org/dc/dcmitype/StillImage" />
      </cc:Work>
    </rdf:RDF>
  </metadata>
  <defs
     id="defs54" />
  <rect
     id="rect2"
     fill-opacity="0"
     fill="rgb(0,0,0)"
     height="252"
     width="480"
     y="-126"
     x="-240" />
  <svg
     id="svg48"
     version="1.1"
     y="-250"
     x="-250"
     viewBox="-250 -250 500 500"
     height="500"
     width="500"
     style="overflow:visible">
    <g
       style="fill:#ffffff;stroke-linejoin:round"
       id="g46">
      <path
         style="fill:#666666;fill-opacity:1;stroke:#444444;stroke-width:4;stroke-linecap:butt;stroke-linejoin:round;stroke-opacity:1"
         id="path4"
         d="M 122.14,0 A 122.14,122.14 0 0 1 0,122.14 122.14,122.14 0 0 1 -122.14,0 122.14,122.14 0 0 1 0,-122.14 122.14,122.14 0 0 1 122.14,0 Z" />
      <path
         style="fill:#f8e9c0;fill-opacity:1;stroke:#444444;stroke-width:4;stroke-linecap:butt;stroke-linejoin:round;stroke-opacity:1"
         id="path6"
         d="M 109.89004,0 A 109.89004,109.89004 0 0 1 0,109.89004 109.89004,109.89004 0 0 1 -109.89004,0 109.89004,109.89004 0 0 1 0,-109.89004 109.89004,109.89004 0 0 1 109.89004,0 Z" />
      <path
         style="fill:#ffffff;fill-opacity:1;stroke:#444444;stroke-width:4;stroke-linecap:butt;stroke-linejoin:round;stroke-opacity:1"
         id="path8"
         d="m 20.31368,-99.505226 c -10.273772,0.289412 -20.520884,4.412099 -27.913888,13.56622 a 6.448124,6.448124 0 1 0 10.03222,8.101229 c 5.809046,-7.19293 12.777952,-9.353072 21.294582,-8.70232 8.51694,0.650454 18.282312,4.713233 26.815248,10.578068 8.532874,5.864493 15.81682,13.518976 19.735096,20.32143 1.959069,3.400886 3.048174,6.558298 3.309336,8.949017 0.261199,2.390794 -0.126648,3.848941 -1.069507,5.156217 -0.171344,0.237584 -0.119946,0.163921 -0.230027,0.305579 -0.206336,-0.141267 -0.283998,-0.158231 -0.602764,-0.439903 -2.622458,-2.317288 -7.126776,-8.382028 -13.079644,-14.489524 -5.952689,-6.107949 -13.790598,-12.467581 -24.364388,-15.348286 -10.57379,-2.880111 -23.536565,-2.014263 -38.730098,4.865822 -6.390713,2.894036 -6.331254,1.803648 -10.460269,-0.01674 -4.129021,-1.820407 -11.883912,-4.334985 -22.201518,-0.565825 -14.261736,5.209692 -29.585098,16.849244 -40.788126,29.15612 -5.601688,6.153338 -10.143944,12.422877 -12.767598,18.71129 -1.311759,3.144113 -2.173392,6.335408 -2.142442,9.696056 0.03094,3.360914 1.167329,6.999056 3.608238,9.745036 5.32849,5.99455 13.108908,8.32567 21.28336,8.962781 8.174018,0.636919 17.185408,-0.336239 26.571959,-1.905682 18.774034,-3.138868 39.184868,-8.771079 54.283851,-10.59611 7.797429,-0.942531 14.319272,-0.232476 18.648546,1.145059 3.95984,1.259914 5.327033,2.984382 5.510566,3.128036 -0.261157,0.374498 -0.959376,1.173604 -2.584043,2.149137 -3.617948,2.172442 -11.105936,4.690982 -22.717296,6.041063 -23.713636,2.757437 -49.799888,2.307838 -69.3718,2.929884 -9.786328,0.311041 -17.807764,0.770678 -24.056621,2.515178 -3.124596,0.872209 -6.124962,1.919445 -8.546204,5.015242 -2.421218,3.09579 -2.325279,8.23422 -0.663215,11.39219 2.604936,4.949379 7.033962,6.170866 11.499635,7.224798 4.465574,1.053931 9.707216,1.54884 15.641484,1.81164 11.869279,0.525629 26.435312,0.01407 40.513031,-0.409678 14.07772,-0.423739 27.709288,-0.744248 36.921372,-0.005 0.877882,0.07041 1.481533,0.200247 2.275077,0.29551 -2.056032,0.411952 -4.39696,0.782619 -7.056902,1.062791 -9.78546,1.030812 -22.838507,1.135003 -35.487498,1.269369 -12.648991,0.134366 -24.813144,0.261528 -33.924664,1.685699 -4.555574,0.712101 -8.361941,1.433563 -11.931156,4.101851 -1.784559,1.33419 -3.613305,3.602559 -4.078298,6.435662 -0.464976,2.833077 0.455842,5.467842 1.685699,7.45984 1.273666,2.062926 2.426636,2.717466 3.68208,3.556146 1.255444,0.838704 2.652818,1.604119 4.269741,2.395952 3.233858,1.583566 7.332678,3.239958 12.167562,4.912756 9.670264,3.345699 22.231588,6.716584 35.643924,8.903448 13.412336,2.187223 27.646544,3.209956 40.761465,1.610133 C 34.814707,81.572178 47.117244,77.32599 55.53672,68.091053 74.99077,46.754373 82.21098,26.150967 80.711758,8.050935 79.212343,-10.048291 69.200094,-24.928912 56.60095,-35.476042 44.001806,-46.022304 28.78248,-52.548796 15.052022,-54.193346 8.186948,-55.015702 1.632804,-54.642257 -4.167296,-52.43879 c -5.800101,2.203473 -10.8841,6.645221 -13.148464,12.839827 a 6.448124,6.448124 0 0 0 -0.07557,0.216603 c -1.142307,3.509206 -0.808263,7.669586 1.010792,10.725938 1.819036,3.055998 4.517233,4.908639 7.280226,6.247616 5.525967,2.678089 12.02056,3.659736 18.58667,4.232777 13.132964,1.146094 26.531536,0.0403 26.531536,0.0403 a 6.448124,6.448124 0 1 0 -1.027539,-12.85446 c 0,0 -12.749556,0.98327 -24.382431,-0.03187 -5.816437,-0.507601 -11.360384,-1.670398 -14.083734,-2.990316 -1.287852,-0.624136 -1.689308,-1.136721 -1.724388,-1.171968 -3.97e-4,-4.16e-4 -0.01984,-0.01314 -0.020088,-0.01339 0.025606,-0.04563 0.02604,0.0069 0.090668,-0.191401 l -0.070494,0.204841 c 0.925759,-2.523183 2.498761,-4.015809 5.611235,-5.19826 3.117713,-1.184436 7.742436,-1.650199 13.108039,-1.007432 10.731084,1.285526 24.182976,6.911884 34.804072,15.803056 10.621902,8.89142 18.379466,20.731498 19.53744,34.703508 C 69.018195,23.089457 63.782723,39.908631 46.00648,59.404778 40.545687,65.39417 31.450802,68.994256 20.137724,70.374003 8.824646,71.753918 -4.39859,70.888894 -16.98738,68.835987 c -12.588791,-2.052858 -24.573266,-5.273652 -33.503374,-8.36318 -3.805703,-1.316651 -6.681678,-2.548541 -9.13043,-3.672025 0.418264,-0.08485 0.652971,-0.192182 1.109818,-0.2636 7.394678,-1.155904 19.458327,-1.399012 32.069499,-1.532944 12.611172,-0.133958 25.849908,-0.196726 36.701334,-1.339858 5.426072,-0.571572 10.241966,-1.371763 14.414752,-2.847617 4.172513,-1.475861 8.551288,-3.801406 10.185236,-8.936122 0.800829,-2.516903 0.42098,-6.00444 -1.141712,-8.297646 C 32.155057,31.289776 30.136244,30.14334 28.192129,29.308181 24.303904,27.637956 19.957661,27.048491 14.723001,26.62846 4.254114,25.788409 -9.503871,26.175097 -23.617675,26.59988 c -14.112998,0.424811 -28.538042,0.902639 -39.556248,0.414718 -3.897079,-0.172584 -7.122064,-0.519461 -9.909274,-0.940292 4.155066,-0.574015 9.294606,-1.03829 15.875286,-1.247533 18.989794,-0.603589 45.515378,-0.110881 70.45122,-3.010516 12.71434,-1.478353 21.631552,-4.050188 27.866643,-7.79402 3.117378,-1.871904 5.64004,-4.084226 7.297027,-6.988082 1.656981,-2.903746 2.15636,-6.65136 1.178675,-9.829294 -1.955462,-6.355186 -7.570386,-9.71416 -14.13104,-11.802196 -6.56022,-2.087336 -14.74484,-2.790534 -24.107336,-1.658885 -16.784764,2.028962 -37.105388,7.709638 -54.861568,10.678632 -8.878524,1.484459 -17.083108,2.263651 -23.443688,1.767967 -6.360766,-0.495635 -10.43367,-2.181718 -12.648125,-4.672748 -0.231391,-0.260326 -0.342358,-0.368392 -0.350908,-1.297908 -0.0086,-0.929467 0.297885,-2.57364 1.148413,-4.61223 1.701081,-4.07735 5.457351,-9.564554 10.401864,-14.99501 9.888628,-10.86178 24.650641,-21.696032 35.677466,-25.724359 7.555196,-2.75993 8.52996,-1.531221 12.574219,0.25185 4.044259,1.783076 11.72141,4.158588 20.982474,-0.03528 13.127818,-5.944703 22.535016,-6.209672 30.020896,-4.17071 7.485818,2.039018 13.395162,6.648136 18.519586,11.906232 5.124144,5.257742 9.025526,10.955462 13.775966,15.153172 2.375232,2.098848 5.396579,4.271632 9.653958,4.179048 4.2578,-0.09254 7.813612,-2.892059 10.173208,-6.16365 3.003893,-4.16495 3.957174,-9.293738 3.431923,-14.101777 -0.525302,-4.808063 -2.350817,-9.462254 -4.954805,-13.98317 -5.207889,-9.041212 -13.647068,-17.669628 -23.605322,-24.51418 -9.958254,-6.844242 -21.451877,-11.914851 -33.137203,-12.807154 -1.460634,-0.111558 -2.927994,-0.148807 -4.395683,-0.107457 z" />
      <path
         style="fill:#ffffff;fill-opacity:1;stroke:#444444;stroke-width:4;stroke-linecap:butt;stroke-linejoin:round;stroke-opacity:1"
         id="path10"
         d="m -67.783981,63.12468 c 7.242406,13.423558 20.171824,24.724608 39.94567,31.129022 48.429626,15.686128 91.23548,-6.669588 111.05874,-37.138868 16.287896,-25.031446 18.200661,-58.035411 9.083124,-86.20666 -9.118402,-28.172676 -29.943583,-52.207782 -59.948172,-56.798386 -15.880432,-2.429818 -29.768184,2.217312 -40.302418,10.8996 -10.533366,8.682542 -17.964252,21.070204 -22.990654,34.521228 -10.052805,26.901242 -11.196146,57.950284 -2.647314,77.03872 6.28463,14.033018 17.943606,24.859519 32.248308,29.056424 14.304701,4.196147 31.123876,1.358252 46.237491,-10.620228 C 59.13153,43.726863 66.649278,25.644812 67.145278,8.303846 67.64142,-9.03712 60.58357,-26.659256 44.143464,-34.194116 c -8.937858,-4.096433 -17.961648,-4.02938 -25.592856,-1.525628 -7.631952,2.503745 -13.976288,7.174081 -19.142004,12.107422 -10.330502,9.867113 -16.324042,21.353854 -16.324042,21.353854 a 6.448124,6.448124 0 1 0 11.39994,6.025414 c 0,0 5.331417,-9.937609 13.830154,-18.054524 4.249455,-4.058527 9.195716,-7.520042 14.254791,-9.17941 5.059255,-1.65974 10.12677,-1.788087 16.201964,0.9966 10.81187,4.955145 15.877828,16.642969 15.484128,30.40604 -0.393756,13.762263 -6.781684,28.577536 -17.364216,36.965206 -12.351516,9.7898 -24.257811,11.386175 -34.599472,8.352267 -10.341662,-3.033549 -19.24945,-11.098992 -24.10994,-21.953022 -5.97685,-13.346182 -5.96644,-43.367078 2.959799,-67.2545 4.463076,-11.943184 10.976107,-22.379458 19.11274,-29.086494 8.136818,-6.707098 17.643588,-10.015852 30.149856,-8.102409 24.232885,3.707792 41.602247,23.216768 49.629698,48.021294 8.028008,24.804526 6.037969,54.210816 -7.6229,75.20476 C 55.617722,75.89137 19.048758,95.886989 -23.861876,81.988078 -43.555742,75.609394 -53.466752,65.095806 -58.58169,52.425362 c -5.115472,-12.670444 -5.062517,-28.005029 -2.331734,-42.94244 5.46148,-29.87563 21.255894,-57.157676 21.255894,-57.157676 a 6.448124,6.448124 0 1 0 -11.135139,-6.503552 c 0,0 -16.809688,28.543187 -22.805832,61.343358 -2.998048,16.399681 -3.387395,34.117174 3.060115,50.086204 0.805938,1.996207 1.724213,3.957342 2.758807,5.874977 z" />
      <path
         style="fill:#ffffff;fill-opacity:1;stroke:#444444;stroke-width:4;stroke-linecap:butt;stroke-linejoin:round;stroke-opacity:1"
         id="path12"
         d="m -3.54206,-102.77194 c -6.828432,0.16281 -16.23718,1.10371 -26.559932,4.21266 -20.645504,6.217918 -45.527406,21.496578 -61.18005,55.410888 -20.734038,44.924766 -5.699704,84.79244 9.294606,104.50844 11.599332,15.252 28.876748,26.008876 46.85991,30.22035 17.983162,4.211368 37.201612,1.722583 51.036912,-10.854898 15.60447,-14.185166 24.783879,-39.435038 32.305906,-64.36654 4.549739,-15.080942 9.11152,-31.81158 10.125902,-46.1094 0.507315,-7.148538 0.219331,-13.749368 -2.039962,-19.604462 -2.259349,-5.854437 -7.389098,-10.949448 -14.135318,-12.302536 -7.38358,-1.480585 -14.703548,2.373849 -18.318396,8.045864 -3.614514,5.67202 -5.259901,12.679062 -6.66407,20.725483 C 14.375294,-16.793309 13.130167,3.6639 8.622116,21.788051 5.694724,33.557635 0.912911,46.069916 -5.15044,53.177535 c -3.031844,3.553815 -6.16993,5.697632 -9.543908,6.52798 -3.373637,0.83039 -7.338568,0.552562 -12.834682,-2.164272 -8.358158,-4.131767 -18.530746,-16.370418 -8.248977,-39.416996 5.404403,-12.113436 23.866652,-30.49718 37.844676,-47.522691 6.989012,-8.513035 12.999726,-16.752152 15.591574,-25.457014 1.295588,-4.352617 1.677874,-9.027262 0.23674,-13.525858 -1.441141,-4.498578 -4.701039,-8.425862 -9.118402,-11.30446 -11.305329,-7.367398 -24.623114,-6.95299 -36.463192,-2.332161 -11.840078,4.620822 -22.819596,13.175124 -32.067764,23.062884 -9.248168,9.88776 -16.73318,21.110566 -21.10542,31.69812 -4.37162,10.587553 -6.444776,21.34443 -0.224992,29.515472 2.470817,3.245805 5.820727,5.653966 9.533616,6.596862 3.712677,0.942958 7.481912,0.4347 10.828238,-0.814321 6.692156,-2.498073 12.358398,-7.689736 17.5894,-14.0554 10.461136,-12.730646 18.96487,-30.38713 20.07901,-45.694186 a 6.448124,6.448124 0 1 0 -12.859606,-0.936851 c -0.791505,10.868662 -8.432,27.795282 -17.182804,38.444711 -4.375477,5.324541 -9.083124,9.022116 -12.135756,10.161118 -1.52649,0.569804 -2.472027,0.566698 -3.143072,0.396248 -0.671113,-0.170438 -1.372786,-0.494835 -2.448052,-1.907399 -1.334011,-1.752412 -1.709167,-8.083002 1.883857,-16.784826 3.593017,-8.70232 10.337384,-18.97262 18.603844,-27.811588 8.266336,-8.8381 18.084594,-16.245798 27.339644,-19.858105 9.25505,-3.612015 17.331542,-3.700303 24.733164,1.123229 2.534695,1.651828 3.425562,3.020237 3.878515,4.434283 0.453003,1.414052 0.471609,3.268757 -0.315661,5.913491 -1.574546,5.289467 -6.60114,12.918072 -13.19918,20.95414 -13.195708,16.073004 -32.098703,33.518006 -39.65334,50.451508 -12.428893,27.858026 -0.126338,49.09501 14.30898,56.230155 7.56152,3.737955 15.022476,4.753292 21.63242,3.126306 6.60982,-1.626986 12.012872,-5.690323 16.27159,-10.682104 8.51694,-9.983178 13.310036,-23.913958 16.476189,-36.644604 4.911385,-19.74545 6.160896,-40.736542 8.749564,-55.570787 1.294219,-7.416874 3.073364,-13.24475 4.837295,-16.012802 1.763931,-2.768009 1.775704,-2.960228 4.907777,-2.332161 2.66657,0.534688 3.512126,1.377082 4.640768,4.301634 1.128641,2.924546 1.641946,7.945548 1.208851,14.048518 -0.86619,12.205382 -5.146503,28.501028 -9.61093,43.29832 C 28.540699,36.926086 18.758092,60.707612 7.235206,71.182574 -2.828758,80.331914 -17.229746,82.52659 -32.187805,79.02359 -47.146669,75.520577 -62.132193,66.164852 -71.723407,53.552812 c -12.452142,-16.37389 -26.3717,-51.17108 -7.85106,-91.29562 14.124158,-30.602084 35.262252,-43.070532 53.191226,-48.469988 17.928974,-5.399673 32.067763,-3.344578 32.067763,-3.344578 a 6.448124,6.448124 0 1 0 1.850234,-12.762456 c 0,0 -4.247992,-0.61446 -11.076672,-0.45165 z" />
      <path
         style="fill:#fdbdef;fill-opacity:1;stroke:none;stroke-linecap:butt;stroke-linejoin:round"
         id="path14"
         d="m -86.85952,33.595319 c 13.962524,16.72636 38.841015,18.967474 55.567314,5.004485 l -6.345948,-7.601758 C -51.476926,39.336054 -65.282962,36.84113 -75.740751,24.312772 -86.198477,11.78499 -86.908563,-2.5584 -75.511159,-14.369214 l -6.345886,-7.601758 c -16.725492,13.963391 -18.964875,38.840148 -5.003202,55.566508 z" />
      <path
         style="fill:#ffffff;fill-opacity:1;stroke:none;stroke-linecap:butt;stroke-linejoin:round"
         id="path16"
         d="m -79.2515,27.250859 c 10.457726,12.528649 29.09164,14.20668 41.620228,3.748699 l -37.87301,-45.367508 c -12.526914,10.457726 -14.204945,29.09164 -3.747243,41.618553 z" />
      <path
         style="fill:none;stroke:#444444;stroke-width:4;stroke-linecap:butt;stroke-linejoin:round;stroke-opacity:1"
         id="path18"
         d="m -86.85952,33.595319 a 39.451344,39.451344 0 0 0 55.567314,5.004485 l -50.5641,-60.571396 a 39.451344,39.451344 0 0 0 -5.003202,55.566508 z" />
      <path
         style="fill:#e8cf77;fill-opacity:1;stroke:none;stroke-linecap:butt;stroke-linejoin:round"
         id="path20"
         d="m -5.304101,-31.455081 c 9.085728,0 15.913974,-0.33862 24.997098,-0.54343 12.750424,-0.287513 27.38354,-2.047364 40.137374,-2.050111 6.962538,-0.0019 13.817258,1.729024 20.726352,2.593577 4.779691,0.598083 9.025526,4.096358 9.025526,8.912934 1.480163,12.264716 -0.815499,27.594092 -0.263643,37.785342 0.746275,10.731084 1.042244,20.85525 -0.06706,31.554527 -0.496664,4.791211 -3.877902,8.69457 -8.69457,8.69457 -6.583595,0 -13.523254,-0.03057 -20.106476,0 -9.880878,0.04588 -18.910744,1.124432 -28.778726,1.633774 C 19.351196,57.76211 7.022,56.036917 -5.303786,55.492327 c -4.812186,-0.212636 -8.69457,-3.877914 -8.69457,-8.69457 0,-5.687911 0.495231,-14.962336 0.54343,-20.649782 0.08425,-9.903261 -1.673058,-15.70677 -2.059306,-25.603148 -0.303602,-7.778954 1.010612,-15.53658 1.515838,-23.305304 0.312579,-4.806767 3.877821,-8.69457 8.69457,-8.69457 z" />
      <path
         style="fill:none;stroke:#444444;stroke-width:4;stroke-linecap:butt;stroke-linejoin:round;stroke-opacity:1"
         id="path22"
         d="m -5.304101,-31.455081 c 9.085728,0 15.913974,-0.33862 24.997098,-0.54343 12.750424,-0.287513 27.38354,-2.047364 40.137374,-2.050111 6.962538,-0.0019 13.817258,1.729024 20.726352,2.593577 4.779691,0.598083 9.025526,4.096358 9.025526,8.912934 1.480163,12.264716 -0.815499,27.594092 -0.263643,37.785342 0.746275,10.731084 1.042244,20.85525 -0.06706,31.554527 -0.496664,4.791211 -3.877902,8.69457 -8.69457,8.69457 -6.583595,0 -13.523254,-0.03057 -20.106476,0 -9.880878,0.04588 -18.910744,1.124432 -28.778726,1.633774 C 19.351196,57.76211 7.022,56.036917 -5.303786,55.492327 c -4.812186,-0.212636 -8.69457,-3.877914 -8.69457,-8.69457 0,-5.687911 0.495231,-14.962336 0.54343,-20.649782 0.08425,-9.903261 -1.673058,-15.70677 -2.059306,-25.603148 -0.303602,-7.778954 1.010612,-15.53658 1.515838,-23.305304 0.312579,-4.806767 3.877821,-8.69457 8.69457,-8.69457 z" />
      <path
         style="fill:#79d476;fill-opacity:1;stroke:#444444;stroke-width:4;stroke-linecap:butt;stroke-linejoin:round;stroke-opacity:1"
         id="path24"
         d="m -23.416781,-31.88474 -8.354934,6.252079 -17.031524,-22.760262 8.354934,-6.25208 c 8.995456,5.173416 12.256098,14.517858 17.031523,22.760261 z" />
      <path
         style="fill:#79d476;fill-opacity:1;stroke:#444444;stroke-width:4;stroke-linecap:butt;stroke-linejoin:round;stroke-opacity:1"
         id="path26"
         d="m -41.80536,-38.607401 -9.243022,4.842789 c -5.623611,-7.1672 -11.185854,-14.39578 -13.192298,-25.180184 l 9.243022,-4.842789 c 2.493261,9.451032 6.999738,17.783708 13.192298,25.180184 z" />
      <path
         style="fill:#79d476;fill-opacity:1;stroke:#444444;stroke-width:4;stroke-linecap:butt;stroke-linejoin:round;stroke-opacity:1"
         id="path28"
         d="m -21.044661,-41.26348 -10.375205,1.120042 c 0.576135,-7.987088 0.442171,-16.612838 -3.051175,-28.262948 l 10.375204,-1.120055 c 3.874132,8.885406 5.731763,18.149074 3.051181,28.262948 z" />
      <path
         style="fill:#79d476;fill-opacity:1;stroke:#444444;stroke-width:4;stroke-linecap:butt;stroke-linejoin:round;stroke-opacity:1"
         id="path30"
         d="m -43.541361,-19.006721 -5.33812,8.966192 c -8.294484,-3.933274 -16.894814,-6.033158 -24.426264,-14.541976 l 5.338119,-8.966192 z" />
      <path
         style="fill:#79d476;fill-opacity:1;stroke:#444444;stroke-width:4;stroke-linecap:butt;stroke-linejoin:round;stroke-opacity:1"
         id="path32"
         d="m -26.726961,-7.06614 -4.013992,9.632444 C -40.258201,0.61574 -49.494341,-1.952393 -56.981089,-8.368512 l 4.013997,-9.632444 z" />
      <path
         style="fill:#79d476;fill-opacity:1;stroke:#444444;stroke-width:4;stroke-linecap:butt;stroke-linejoin:round;stroke-opacity:1"
         id="path34"
         d="m -24.16512,-26.98488 -0.546332,10.420774 c -9.662514,-2.494465 -19.135928,-3.104136 -28.387568,-1.488236 l 0.546325,-10.420774 c 9.462254,-1.227408 18.925376,-1.755413 28.387568,1.488241 z" />
      <path
         style="fill:#79d476;fill-opacity:1;stroke:#444444;stroke-width:4;stroke-linecap:butt;stroke-linejoin:round;stroke-opacity:1"
         id="path36"
         d="m -41.848141,-35.74424 -3.913248,8.646396 c -10.602124,-0.579669 -18.578052,-4.91019 -26.35279,-9.528408 l 3.913235,-8.646396 c 7.841636,5.061307 16.875036,7.739707 26.35279,9.528407 z" />
      <path
         style="fill:#efdd9e;fill-opacity:1;stroke:none;stroke-linecap:butt;stroke-linejoin:round"
         id="path38"
         d="m 28.798379,48.37302 c -1.23155,0 -16.714332,0.351874 -19.705088,-0.527813 -2.990911,-0.879687 -3.574449,-1.416198 -6.213578,-0.0087 -2.639055,1.407517 -6.547138,1.34132 -7.954662,-1.649597 -1.407512,-2.990918 -1.138358,-3.092015 -2.194013,-8.194168 -1.055662,-5.102235 -0.703744,-5.805947 0.527818,-8.44502 1.231561,-2.639061 1.407517,-0.527825 0.703749,-6.157809 -0.703738,-5.629979 -2.287199,-17.065872 0.175937,-16.01026 2.463086,1.055655 2.565051,2.621601 5.555962,5.084775 2.990917,2.463092 1.326539,4.374112 0.337069,8.81578 -0.855334,3.839994 0.15242,4.006508 0.85617,8.580924 1.783101,4.409092 5.564816,9.393496 8.409308,12.660152 4.926259,1.231537 9.260196,0.682843 13.659096,0.155031 4.398422,-0.527813 5.842557,5.696175 5.842557,5.696175 z" />
      <path
         style="fill:#efdd9e;fill-opacity:1;stroke:none;stroke-linecap:butt;stroke-linejoin:round"
         id="path40"
         d="m 44.98596,-24.276721 c 1.231189,-0.03113 16.6997,-0.773779 19.711907,0.03007 3.012239,0.803898 3.6091,1.325504 6.21178,-0.148205 2.60268,-1.473709 6.51124,-1.506204 7.993784,1.448264 1.482544,2.954468 1.216061,3.062266 2.40015,8.136136 1.1841,5.073856 0.850119,5.786342 -0.314415,8.455684 -1.164577,2.669317 -1.393767,0.563195 -0.548049,6.173618 0.845686,5.610466 2.97347,12.649859 0.484443,11.65693 -2.488972,-0.993073 -2.886472,1.797113 -5.938689,-0.589713 -3.052217,-2.386826 -1.436491,-4.339201 -0.559557,-8.80462 0.758117,-3.860375 -0.253531,-4.001357 -1.072594,-8.556497 -1.893908,-4.362674 -5.800187,-9.249904 -8.726376,-12.444392 -4.955753,-1.106806 -9.274828,-0.448825 -13.658228,0.189881 -4.383735,0.638699 -5.984507,-5.546843 -5.984507,-5.546843 z" />
      <path
         style="fill:#efdd9e;fill-opacity:1;stroke:none;stroke-linecap:butt;stroke-linejoin:round"
         id="path42"
         d="m 81.04826,16.591199 c 0,0 1.280362,18.18088 -1.79247,24.326568 -3.072851,6.145588 -24.326568,9.218098 -25.60662,4.865307 -1.280369,-4.353126 3.328848,-4.609223 11.779008,-9.986651 8.450228,-5.377409 8.450228,-16.38846 11.011324,-18.693248 2.560661,-2.304565 4.609222,-0.512133 4.609222,-0.512133 z" />
      <path
         style="fill:#efdd9e;fill-opacity:1;stroke:none;stroke-linecap:butt;stroke-linejoin:round"
         id="path44"
         d="m -9.2845,-2.914 c 0,0 1.132857,-14.164582 4.218163,-18.54451 3.085399,-4.379426 19.827972,-4.270083 20.307666,-0.764969 0.479439,3.505163 -3.103696,3.165081 -10.244508,6.32524 -7.141284,3.160183 -8.425181,11.648312 -10.667472,13.126949 -2.242757,1.478092 -3.612964,-0.142613 -3.612964,-0.142613 z" />
    </g>
  </svg>
</svg>
